<mxfile host="app.diagrams.net" modified="2020-06-22T08:33:09.844Z" agent="5.0 (Macintosh; Intel Mac OS X 10_14_6) AppleWebKit/537.36 (KHTML, like Gecko) Chrome/83.0.4103.97 Safari/537.36" etag="gNx-bdUnXcrwWFMVqWOF" version="13.3.0" type="github">
  <diagram id="g2mtdsYEgcs9JWB7zgiM" name="Page-1">
    <mxGraphModel dx="1426" dy="-235" grid="1" gridSize="10" guides="1" tooltips="1" connect="1" arrows="1" fold="1" page="1" pageScale="1" pageWidth="850" pageHeight="1100" math="0" shadow="0">
      <root>
        <mxCell id="0" />
        <mxCell id="1" parent="0" />
        <mxCell id="olm5wSNEsJc9r0WwJ6Rd-115" value="&lt;b&gt;&lt;font color=&quot;#ff3333&quot;&gt;&amp;nbsp; &amp;nbsp; &amp;nbsp; &amp;nbsp;WorkerGroup&lt;/font&gt;&lt;/b&gt;" style="rounded=1;whiteSpace=wrap;html=1;verticalAlign=top;align=left;dashed=1;fillColor=#f5f5f5;strokeColor=#666666;fontColor=#333333;" parent="1" vertex="1">
          <mxGeometry x="517.62" y="1210" width="252.38" height="180" as="geometry" />
        </mxCell>
        <mxCell id="olm5wSNEsJc9r0WwJ6Rd-87" value="DefaultChannelPipeline" style="rounded=0;whiteSpace=wrap;html=1;verticalAlign=top;" parent="1" vertex="1">
          <mxGeometry x="280" y="1600" width="211.56" height="220" as="geometry" />
        </mxCell>
        <mxCell id="olm5wSNEsJc9r0WwJ6Rd-97" value="DefaultChannelHandlerContext" style="rounded=0;whiteSpace=wrap;html=1;verticalAlign=top;fillColor=#d0cee2;strokeColor=#56517e;" parent="1" vertex="1">
          <mxGeometry x="294.00000000000006" y="1670" width="179.56" height="70" as="geometry" />
        </mxCell>
        <mxCell id="olm5wSNEsJc9r0WwJ6Rd-72" value="&lt;br&gt;&lt;br&gt;NioEventLoop" style="ellipse;whiteSpace=wrap;html=1;aspect=fixed;verticalAlign=top;" parent="1" vertex="1">
          <mxGeometry x="225" y="1440" width="135" height="135" as="geometry" />
        </mxCell>
        <mxCell id="olm5wSNEsJc9r0WwJ6Rd-5" value="&lt;b&gt;&lt;font color=&quot;#ff3333&quot;&gt;&amp;nbsp; &amp;nbsp; &amp;nbsp; &amp;nbsp;BossGroup&lt;/font&gt;&lt;/b&gt;" style="rounded=1;whiteSpace=wrap;html=1;verticalAlign=top;align=left;dashed=1;fillColor=#f5f5f5;strokeColor=#666666;fontColor=#333333;" parent="1" vertex="1">
          <mxGeometry x="190" y="1210" width="250" height="110" as="geometry" />
        </mxCell>
        <mxCell id="olm5wSNEsJc9r0WwJ6Rd-6" value="NioEventLoopGroup" style="rounded=1;whiteSpace=wrap;html=1;verticalAlign=top;fillColor=#e1d5e7;strokeColor=#9673a6;" parent="1" vertex="1">
          <mxGeometry x="221.88" y="1240" width="138.12" height="60" as="geometry" />
        </mxCell>
        <mxCell id="olm5wSNEsJc9r0WwJ6Rd-7" value="请求端" style="rounded=0;whiteSpace=wrap;html=1;fillColor=#dae8fc;strokeColor=#6c8ebf;" parent="1" vertex="1">
          <mxGeometry x="40" y="1310" width="80" height="40" as="geometry" />
        </mxCell>
        <mxCell id="olm5wSNEsJc9r0WwJ6Rd-8" value="请求端" style="rounded=0;whiteSpace=wrap;html=1;fillColor=#dae8fc;strokeColor=#6c8ebf;" parent="1" vertex="1">
          <mxGeometry x="40" y="1370" width="80" height="40" as="geometry" />
        </mxCell>
        <mxCell id="olm5wSNEsJc9r0WwJ6Rd-9" value="TaskQueue" style="rounded=0;whiteSpace=wrap;html=1;fillColor=#fff2cc;strokeColor=#d6b656;" parent="1" vertex="1">
          <mxGeometry x="287.93" y="1260" width="62.07" height="30" as="geometry" />
        </mxCell>
        <mxCell id="olm5wSNEsJc9r0WwJ6Rd-14" value="" style="endArrow=classic;html=1;exitX=1;exitY=0.5;exitDx=0;exitDy=0;entryX=0;entryY=0.5;entryDx=0;entryDy=0;" parent="1" source="olm5wSNEsJc9r0WwJ6Rd-7" target="olm5wSNEsJc9r0WwJ6Rd-6" edge="1">
          <mxGeometry width="50" height="50" relative="1" as="geometry">
            <mxPoint x="510" y="1480" as="sourcePoint" />
            <mxPoint x="560" y="1430" as="targetPoint" />
          </mxGeometry>
        </mxCell>
        <mxCell id="olm5wSNEsJc9r0WwJ6Rd-15" value="请求(event)" style="text;html=1;align=center;verticalAlign=middle;resizable=0;points=[];labelBackgroundColor=#ffffff;" parent="olm5wSNEsJc9r0WwJ6Rd-14" vertex="1" connectable="0">
          <mxGeometry x="-0.2" relative="1" as="geometry">
            <mxPoint as="offset" />
          </mxGeometry>
        </mxCell>
        <mxCell id="olm5wSNEsJc9r0WwJ6Rd-16" value="" style="endArrow=classic;html=1;exitX=1;exitY=0.5;exitDx=0;exitDy=0;entryX=0;entryY=0.5;entryDx=0;entryDy=0;" parent="1" source="olm5wSNEsJc9r0WwJ6Rd-8" target="olm5wSNEsJc9r0WwJ6Rd-6" edge="1">
          <mxGeometry width="50" height="50" relative="1" as="geometry">
            <mxPoint x="510" y="1480" as="sourcePoint" />
            <mxPoint x="560" y="1430" as="targetPoint" />
          </mxGeometry>
        </mxCell>
        <mxCell id="olm5wSNEsJc9r0WwJ6Rd-17" value="请求(event)" style="text;html=1;align=center;verticalAlign=middle;resizable=0;points=[];labelBackgroundColor=#ffffff;" parent="olm5wSNEsJc9r0WwJ6Rd-16" vertex="1" connectable="0">
          <mxGeometry x="-0.292" y="2" relative="1" as="geometry">
            <mxPoint x="-30.17" y="20.509999999999998" as="offset" />
          </mxGeometry>
        </mxCell>
        <mxCell id="olm5wSNEsJc9r0WwJ6Rd-18" value="" style="endArrow=classic;html=1;exitX=0.5;exitY=1;exitDx=0;exitDy=0;entryX=0.5;entryY=0;entryDx=0;entryDy=0;" parent="1" source="olm5wSNEsJc9r0WwJ6Rd-6" target="olm5wSNEsJc9r0WwJ6Rd-35" edge="1">
          <mxGeometry width="50" height="50" relative="1" as="geometry">
            <mxPoint x="505.42999999999995" y="1440" as="sourcePoint" />
            <mxPoint x="291" y="1420" as="targetPoint" />
          </mxGeometry>
        </mxCell>
        <mxCell id="olm5wSNEsJc9r0WwJ6Rd-19" value="accept 新建连接" style="text;html=1;align=center;verticalAlign=middle;resizable=0;points=[];labelBackgroundColor=#ffffff;fontSize=15;" parent="olm5wSNEsJc9r0WwJ6Rd-18" vertex="1" connectable="0">
          <mxGeometry x="-0.0989" y="3" relative="1" as="geometry">
            <mxPoint x="-3.03" y="31" as="offset" />
          </mxGeometry>
        </mxCell>
        <mxCell id="olm5wSNEsJc9r0WwJ6Rd-23" value="Selector" style="rounded=0;whiteSpace=wrap;html=1;fillColor=#fff2cc;strokeColor=#d6b656;" parent="1" vertex="1">
          <mxGeometry x="227.93" y="1260" width="55" height="30" as="geometry" />
        </mxCell>
        <mxCell id="olm5wSNEsJc9r0WwJ6Rd-35" value="1. select" style="rounded=0;whiteSpace=wrap;html=1;fillColor=#fff2cc;strokeColor=#d6b656;" parent="1" vertex="1">
          <mxGeometry x="263.44" y="1425" width="55" height="30" as="geometry" />
        </mxCell>
        <mxCell id="olm5wSNEsJc9r0WwJ6Rd-73" value="2. processSelectedKeys" style="rounded=0;whiteSpace=wrap;html=1;fillColor=#fff2cc;strokeColor=#d6b656;" parent="1" vertex="1">
          <mxGeometry x="318.44" y="1500" width="140" height="33.75" as="geometry" />
        </mxCell>
        <mxCell id="olm5wSNEsJc9r0WwJ6Rd-75" value="3. runAllTasks" style="rounded=0;whiteSpace=wrap;html=1;fillColor=#fff2cc;strokeColor=#d6b656;" parent="1" vertex="1">
          <mxGeometry x="160" y="1498.75" width="95" height="36.25" as="geometry" />
        </mxCell>
        <mxCell id="olm5wSNEsJc9r0WwJ6Rd-76" value="" style="endArrow=classic;html=1;" parent="1" edge="1">
          <mxGeometry width="50" height="50" relative="1" as="geometry">
            <mxPoint x="340" y="1440" as="sourcePoint" />
            <mxPoint x="370" y="1490" as="targetPoint" />
            <Array as="points">
              <mxPoint x="360" y="1460" />
            </Array>
          </mxGeometry>
        </mxCell>
        <mxCell id="olm5wSNEsJc9r0WwJ6Rd-80" value="NioEventLoopGroup" style="rounded=1;whiteSpace=wrap;html=1;verticalAlign=top;fillColor=#e1d5e7;strokeColor=#9673a6;" parent="1" vertex="1">
          <mxGeometry x="573.56" y="1240" width="138.12" height="60" as="geometry" />
        </mxCell>
        <mxCell id="olm5wSNEsJc9r0WwJ6Rd-81" value="TaskQueue" style="rounded=0;whiteSpace=wrap;html=1;fillColor=#fff2cc;strokeColor=#d6b656;" parent="1" vertex="1">
          <mxGeometry x="639.6099999999999" y="1260" width="62.07" height="30" as="geometry" />
        </mxCell>
        <mxCell id="olm5wSNEsJc9r0WwJ6Rd-82" value="Selector" style="rounded=0;whiteSpace=wrap;html=1;fillColor=#fff2cc;strokeColor=#d6b656;" parent="1" vertex="1">
          <mxGeometry x="579.6099999999999" y="1260" width="55" height="30" as="geometry" />
        </mxCell>
        <mxCell id="olm5wSNEsJc9r0WwJ6Rd-83" value="NioEventLoopGroup" style="rounded=1;whiteSpace=wrap;html=1;verticalAlign=top;fillColor=#e1d5e7;strokeColor=#9673a6;" parent="1" vertex="1">
          <mxGeometry x="575.4399999999999" y="1320" width="138.12" height="60" as="geometry" />
        </mxCell>
        <mxCell id="olm5wSNEsJc9r0WwJ6Rd-84" value="TaskQueue" style="rounded=0;whiteSpace=wrap;html=1;fillColor=#fff2cc;strokeColor=#d6b656;" parent="1" vertex="1">
          <mxGeometry x="641.4899999999999" y="1340" width="62.07" height="30" as="geometry" />
        </mxCell>
        <mxCell id="olm5wSNEsJc9r0WwJ6Rd-85" value="Selector" style="rounded=0;whiteSpace=wrap;html=1;fillColor=#fff2cc;strokeColor=#d6b656;" parent="1" vertex="1">
          <mxGeometry x="581.4899999999999" y="1340" width="55" height="30" as="geometry" />
        </mxCell>
        <mxCell id="olm5wSNEsJc9r0WwJ6Rd-86" value="" style="endArrow=classic;html=1;exitX=0.5;exitY=1;exitDx=0;exitDy=0;entryX=0.5;entryY=0;entryDx=0;entryDy=0;" parent="1" source="olm5wSNEsJc9r0WwJ6Rd-73" target="olm5wSNEsJc9r0WwJ6Rd-87" edge="1">
          <mxGeometry width="50" height="50" relative="1" as="geometry">
            <mxPoint x="700" y="1550" as="sourcePoint" />
            <mxPoint x="380" y="1590" as="targetPoint" />
          </mxGeometry>
        </mxCell>
        <mxCell id="olm5wSNEsJc9r0WwJ6Rd-88" value="&lt;br&gt;&lt;br&gt;NioEventLoop" style="ellipse;whiteSpace=wrap;html=1;aspect=fixed;verticalAlign=top;" parent="1" vertex="1">
          <mxGeometry x="578.56" y="1450" width="135" height="135" as="geometry" />
        </mxCell>
        <mxCell id="olm5wSNEsJc9r0WwJ6Rd-89" value="1. select" style="rounded=0;whiteSpace=wrap;html=1;fillColor=#fff2cc;strokeColor=#d6b656;" parent="1" vertex="1">
          <mxGeometry x="617" y="1435" width="55" height="30" as="geometry" />
        </mxCell>
        <mxCell id="olm5wSNEsJc9r0WwJ6Rd-90" value="2. processSelectedKeys" style="rounded=0;whiteSpace=wrap;html=1;fillColor=#fff2cc;strokeColor=#d6b656;" parent="1" vertex="1">
          <mxGeometry x="672" y="1510" width="140" height="33.75" as="geometry" />
        </mxCell>
        <mxCell id="olm5wSNEsJc9r0WwJ6Rd-91" value="3. runAllTasks" style="rounded=0;whiteSpace=wrap;html=1;fillColor=#fff2cc;strokeColor=#d6b656;" parent="1" vertex="1">
          <mxGeometry x="513.56" y="1508.75" width="95" height="36.25" as="geometry" />
        </mxCell>
        <mxCell id="olm5wSNEsJc9r0WwJ6Rd-92" value="" style="endArrow=classic;html=1;" parent="1" edge="1">
          <mxGeometry width="50" height="50" relative="1" as="geometry">
            <mxPoint x="693.56" y="1450" as="sourcePoint" />
            <mxPoint x="723.56" y="1500" as="targetPoint" />
            <Array as="points">
              <mxPoint x="713.56" y="1470" />
            </Array>
          </mxGeometry>
        </mxCell>
        <mxCell id="olm5wSNEsJc9r0WwJ6Rd-93" value="" style="endArrow=classic;html=1;exitX=0.447;exitY=1.007;exitDx=0;exitDy=0;exitPerimeter=0;entryX=0.5;entryY=0;entryDx=0;entryDy=0;" parent="1" source="olm5wSNEsJc9r0WwJ6Rd-90" target="olm5wSNEsJc9r0WwJ6Rd-108" edge="1">
          <mxGeometry width="50" height="50" relative="1" as="geometry">
            <mxPoint x="1053.56" y="1560" as="sourcePoint" />
            <mxPoint x="733.56" y="1600" as="targetPoint" />
          </mxGeometry>
        </mxCell>
        <mxCell id="olm5wSNEsJc9r0WwJ6Rd-94" value="HeadContext" style="rounded=0;whiteSpace=wrap;html=1;fillColor=#d0cee2;strokeColor=#56517e;" parent="1" vertex="1">
          <mxGeometry x="293.78000000000003" y="1630" width="180" height="30" as="geometry" />
        </mxCell>
        <mxCell id="olm5wSNEsJc9r0WwJ6Rd-95" value="ServerBootstrapAcceptor" style="rounded=0;whiteSpace=wrap;html=1;fillColor=#d5e8d4;strokeColor=#82b366;" parent="1" vertex="1">
          <mxGeometry x="309.66" y="1710" width="148.12" height="30" as="geometry" />
        </mxCell>
        <mxCell id="olm5wSNEsJc9r0WwJ6Rd-96" value="TailContext" style="rounded=0;whiteSpace=wrap;html=1;fillColor=#d0cee2;strokeColor=#56517e;" parent="1" vertex="1">
          <mxGeometry x="294.00000000000006" y="1770" width="183.78" height="30" as="geometry" />
        </mxCell>
        <mxCell id="olm5wSNEsJc9r0WwJ6Rd-98" value="&lt;font style=&quot;background-color: rgb(151 , 208 , 119)&quot;&gt;ChannelHandler&lt;/font&gt;" style="text;html=1;align=center;verticalAlign=middle;resizable=0;points=[];autosize=1;" parent="1" vertex="1">
          <mxGeometry x="309.66" y="1690" width="100" height="20" as="geometry" />
        </mxCell>
        <mxCell id="olm5wSNEsJc9r0WwJ6Rd-99" value="......" style="text;html=1;align=center;verticalAlign=middle;resizable=0;points=[];autosize=1;fontSize=18;" parent="1" vertex="1">
          <mxGeometry x="355.28000000000003" y="1740" width="50" height="30" as="geometry" />
        </mxCell>
        <mxCell id="olm5wSNEsJc9r0WwJ6Rd-103" value="" style="curved=1;endArrow=classic;html=1;fontSize=15;entryX=0;entryY=0.5;entryDx=0;entryDy=0;exitX=1;exitY=0.5;exitDx=0;exitDy=0;" parent="1" source="olm5wSNEsJc9r0WwJ6Rd-97" target="olm5wSNEsJc9r0WwJ6Rd-83" edge="1">
          <mxGeometry width="50" height="50" relative="1" as="geometry">
            <mxPoint x="566.22" y="1542.5" as="sourcePoint" />
            <mxPoint x="616.22" y="1492.5" as="targetPoint" />
            <Array as="points">
              <mxPoint x="460" y="1493" />
              <mxPoint x="566.22" y="1492.5" />
            </Array>
          </mxGeometry>
        </mxCell>
        <mxCell id="olm5wSNEsJc9r0WwJ6Rd-104" value="注册channel 到 Selector" style="edgeLabel;html=1;align=center;verticalAlign=middle;resizable=0;points=[];fontSize=15;" parent="olm5wSNEsJc9r0WwJ6Rd-103" vertex="1" connectable="0">
          <mxGeometry x="0.5782" y="-1" relative="1" as="geometry">
            <mxPoint x="-56.59" y="-12.31" as="offset" />
          </mxGeometry>
        </mxCell>
        <mxCell id="olm5wSNEsJc9r0WwJ6Rd-105" value="......" style="text;html=1;align=center;verticalAlign=middle;resizable=0;points=[];autosize=1;fontSize=18;" parent="1" vertex="1">
          <mxGeometry x="608.56" y="1290" width="50" height="30" as="geometry" />
        </mxCell>
        <mxCell id="olm5wSNEsJc9r0WwJ6Rd-106" value="" style="endArrow=classic;html=1;fontSize=15;exitX=0.5;exitY=1;exitDx=0;exitDy=0;entryX=0.5;entryY=0;entryDx=0;entryDy=0;" parent="1" source="olm5wSNEsJc9r0WwJ6Rd-83" target="olm5wSNEsJc9r0WwJ6Rd-89" edge="1">
          <mxGeometry width="50" height="50" relative="1" as="geometry">
            <mxPoint x="750.7099999999999" y="1580" as="sourcePoint" />
            <mxPoint x="800.7099999999999" y="1530" as="targetPoint" />
          </mxGeometry>
        </mxCell>
        <mxCell id="olm5wSNEsJc9r0WwJ6Rd-107" value="read/write" style="edgeLabel;html=1;align=center;verticalAlign=middle;resizable=0;points=[];fontSize=15;" parent="olm5wSNEsJc9r0WwJ6Rd-106" vertex="1" connectable="0">
          <mxGeometry x="-0.3668" y="1" relative="1" as="geometry">
            <mxPoint x="0.56" y="3" as="offset" />
          </mxGeometry>
        </mxCell>
        <mxCell id="olm5wSNEsJc9r0WwJ6Rd-108" value="DefaultChannelPipeline" style="rounded=0;whiteSpace=wrap;html=1;verticalAlign=top;" parent="1" vertex="1">
          <mxGeometry x="629.15" y="1610" width="211.56" height="220" as="geometry" />
        </mxCell>
        <mxCell id="olm5wSNEsJc9r0WwJ6Rd-110" value="HeadContext" style="rounded=0;whiteSpace=wrap;html=1;fillColor=#d0cee2;strokeColor=#56517e;" parent="1" vertex="1">
          <mxGeometry x="642.93" y="1640" width="180" height="30" as="geometry" />
        </mxCell>
        <mxCell id="olm5wSNEsJc9r0WwJ6Rd-112" value="TailContext" style="rounded=0;whiteSpace=wrap;html=1;fillColor=#d0cee2;strokeColor=#56517e;" parent="1" vertex="1">
          <mxGeometry x="643.15" y="1780" width="183.78" height="30" as="geometry" />
        </mxCell>
        <mxCell id="olm5wSNEsJc9r0WwJ6Rd-114" value="......" style="text;html=1;align=center;verticalAlign=middle;resizable=0;points=[];autosize=1;fontSize=18;" parent="1" vertex="1">
          <mxGeometry x="701.68" y="1705" width="50" height="30" as="geometry" />
        </mxCell>
      </root>
    </mxGraphModel>
  </diagram>
</mxfile>
